<svg width="32" height="14" viewBox="0 0 32 14" fill="none" xmlns="http://www.w3.org/2000/svg">
<path d="M9.64748 5.05896L9.62483 3.26533C9.62363 3.17019 9.66041 3.07847 9.72709 3.01034C9.79376 2.94221 9.88487 2.90326 9.98036 2.90206C10.0759 2.90085 10.1679 2.93749 10.2363 3.00391C10.3047 3.07033 10.3438 3.1611 10.345 3.25624L10.3676 5.04987C10.3688 5.14501 10.332 5.23673 10.2653 5.30486C10.1987 5.37299 10.1076 5.41194 10.0121 5.41314C9.91658 5.41435 9.82452 5.37771 9.75614 5.31129C9.68777 5.24487 9.64868 5.1541 9.64748 5.05896ZM11.5995 3.18142C11.5914 3.1348 11.5742 3.09023 11.5487 3.05028C11.5233 3.01033 11.4902 2.97578 11.4513 2.94864C11.4124 2.9215 11.3685 2.90229 11.3221 2.89212C11.2757 2.88196 11.2278 2.88103 11.181 2.8894C11.1343 2.89777 11.0897 2.91526 11.0497 2.94088C11.0098 2.9665 10.9754 2.99974 10.9484 3.03868C10.9214 3.07761 10.9024 3.12148 10.8925 3.16776C10.8826 3.21404 10.882 3.26181 10.8907 3.30832L11.2723 5.42508C11.2691 5.75322 11.1371 6.06708 10.9045 6.29946C10.6719 6.53185 10.3573 6.6643 10.0279 6.66846C9.69857 6.67262 9.38069 6.54815 9.14232 6.32171C8.90394 6.09527 8.76403 5.78485 8.75252 5.4569L9.08058 3.33118C9.08811 3.28446 9.08629 3.23672 9.07523 3.19071C9.06417 3.1447 9.04408 3.10132 9.01612 3.06307C8.98816 3.02483 8.95288 2.99248 8.91232 2.96787C8.87176 2.94327 8.82671 2.9269 8.77977 2.91972C8.73283 2.91253 8.68492 2.91467 8.63881 2.926C8.59271 2.93734 8.5493 2.95765 8.5111 2.98577C8.4729 3.01388 8.44066 3.04925 8.41624 3.08983C8.39181 3.13041 8.37568 3.1754 8.36878 3.22221L8.0359 5.37912C8.03288 5.39865 8.03148 5.41839 8.03174 5.43815C8.0382 5.89896 8.20614 6.34302 8.50649 6.6935C8.80684 7.04397 9.22071 7.27882 9.6765 7.35741L9.73354 11.8748C9.73474 11.9699 9.77383 12.0607 9.8422 12.1271C9.91058 12.1935 10.0026 12.2302 10.0981 12.2289C10.1936 12.2277 10.2847 12.1888 10.3514 12.1207C10.4181 12.0525 10.4549 11.9608 10.4537 11.8657L10.3966 7.34832C10.8503 7.25824 11.2581 7.01302 11.5495 6.65507C11.8409 6.29713 11.9976 5.84897 11.9924 5.38814C11.9922 5.36838 11.9903 5.34868 11.9868 5.32923L11.5995 3.18142Z" fill="#FFD362"/>
<path d="M17 11.6538V7.49999V3.34615C17 3.25435 16.9532 3.1663 16.8698 3.10139C16.7865 3.03647 16.6734 3 16.5556 3C16.4377 3 16.3246 3.03647 16.2413 3.10139C16.1579 3.1663 16.1111 3.25435 16.1111 3.34615V5.76922H13.4445C13.3821 5.76922 13.3204 5.77944 13.2635 5.79921C13.2065 5.81899 13.1555 5.84788 13.1139 5.88401C13.0722 5.92014 13.0407 5.9627 13.0215 6.00892C13.0024 6.05514 12.9959 6.10399 13.0025 6.15228C13.1364 7.01963 13.3548 7.87779 13.6558 8.71935C14.3235 10.5551 15.2481 11.6519 16.4037 11.9792C16.4708 11.9982 16.5428 12.0043 16.6137 11.997C16.6845 11.9898 16.752 11.9693 16.8105 11.9374C16.8691 11.9054 16.9168 11.863 16.9498 11.8136C16.9828 11.7643 17 11.7095 17 11.6538ZM16.1111 11.0326C15.4962 10.5888 14.9507 9.73942 14.511 8.53061C14.269 7.85073 14.0822 7.15967 13.9515 6.46153H16.1111V11.0326Z" fill="#FFD362"/>
<path d="M6.01419 3.528H0.986188C0.770188 3.528 0.602188 3.696 0.602188 3.912V11.616C0.602188 11.832 0.770188 12 0.986188 12C1.19019 12 1.37019 11.832 1.37019 11.616V7.956H4.71819C4.93419 7.956 5.10219 7.788 5.10219 7.572C5.10219 7.368 4.93419 7.2 4.71819 7.2H1.37019V4.284H6.01419C6.21819 4.284 6.39819 4.116 6.39819 3.912C6.39819 3.696 6.21819 3.528 6.01419 3.528Z" fill="#FFD362"/>
<path d="M21.7124 12C19.9604 12 18.6524 10.608 18.6524 8.76C18.6524 7.884 18.9404 7.08 19.4684 6.48C20.0204 5.856 20.8004 5.52 21.6524 5.52C23.3684 5.52 24.6044 6.876 24.6044 8.76C24.6044 8.964 24.4364 9.144 24.2204 9.144H19.4324C19.6004 10.356 20.5244 11.232 21.7124 11.232C22.5164 11.232 23.2244 10.848 23.6324 10.152C23.7524 9.972 23.9804 9.924 24.1604 10.032C24.3404 10.14 24.4004 10.38 24.2924 10.56C23.7284 11.472 22.7924 12 21.7124 12ZM19.4324 8.376H23.8124C23.6684 7.128 22.8284 6.276 21.6524 6.276C20.4764 6.276 19.5884 7.14 19.4324 8.376ZM31.0201 5.52C30.8041 5.52 30.6361 5.688 30.6361 5.892V6.564C30.0841 5.916 29.2681 5.52 28.3321 5.52C26.5921 5.52 25.2721 6.912 25.2721 8.76C25.2721 10.608 26.5921 12 28.3321 12C29.2681 12 30.0841 11.604 30.6361 10.944V11.616C30.6361 11.832 30.8041 12 31.0201 12C31.2361 12 31.4041 11.832 31.4041 11.616V5.892C31.4041 5.688 31.2361 5.52 31.0201 5.52ZM28.3321 11.232C27.0241 11.232 26.0401 10.164 26.0401 8.76C26.0401 7.344 27.0241 6.276 28.3321 6.276C29.6521 6.276 30.6361 7.344 30.6361 8.76C30.6361 10.164 29.6521 11.232 28.3321 11.232Z" fill="#FFD362"/>
</svg>
