<svg height="512" viewBox="0 0 59 59" width="512" xmlns="http://www.w3.org/2000/svg"><g id="Page-1" fill="none" fill-rule="evenodd"><g id="030---Crate" fill="rgb(0,0,0)" fill-rule="nonzero"><path id="Shape" d="m10 23h-8c-.55228475 0-1 .4477153-1 1v34c0 .5522847.44771525 1 1 1h8c.5522847 0 1-.4477153 1-1v-34c0-.5522847-.4477153-1-1-1zm-4 31c-.55228475 0-1-.4477153-1-1s.44771525-1 1-1 1 .4477153 1 1-.44771525 1-1 1zm0-12c-.55228475 0-1-.4477153-1-1s.44771525-1 1-1 1 .4477153 1 1-.44771525 1-1 1zm0-12c-.55228475 0-1-.4477153-1-1s.44771525-1 1-1 1 .4477153 1 1-.44771525 1-1 1z"/><path id="Shape" d="m58 23h-8c-.5522847 0-1 .4477153-1 1v34c0 .5522847.4477153 1 1 1h8c.5522847 0 1-.4477153 1-1v-34c0-.5522847-.4477153-1-1-1zm-4 31c-.5522847 0-1-.4477153-1-1s.4477153-1 1-1 1 .4477153 1 1-.4477153 1-1 1zm0-12c-.5522847 0-1-.4477153-1-1s.4477153-1 1-1 1 .4477153 1 1-.4477153 1-1 1zm0-12c-.5522847 0-1-.4477153-1-1s.4477153-1 1-1 1 .4477153 1 1-.4477153 1-1 1z"/><path id="Rectangle-path" d="m13 25h34v8h-34z"/><path id="Rectangle-path" d="m13 49h34v8h-34z"/><path id="Rectangle-path" d="m13 37h34v8h-34z"/><path id="Shape" d="m14.56 8.45-.06-.18c-.2098536-.68269592-.7719444-1.1989018-1.47-1.35-1.6685124-.25410817-3.37079547-.17594385-5.009.23.728-3.276 2.74-4.012 2.854-4.05.5279842-.16209558.8245956-.72151578.6625-1.2495-.1620956-.52798421-.7215158-.82459556-1.2495-.6625-1.5306574.60516192-2.76506769 1.78325067-3.441 3.284-.54451641-1.41762992-1.23595172-2.77435804-2.063-4.048-.31811602-.45149278-.94200722-.55961602-1.3935-.2415s-.55961602.94200722-.2415 1.3935c.61734417.94110066 1.1421255 1.93975918 1.567 2.982-1.23945727-.61125279-2.64950445-.78433608-4-.491-.52418751.15997835-.82194192.71207413-.66765503 1.23796497s.70312266.82961234 1.23065503.68103503c.092-.025 2.191-.542 4.62 1.806-1.5929722.56697576-3.06003853 1.43926711-4.319 2.568-.49018343.5171741-.67247145 1.2539216-.48 1.94.89629366 3.0383969 2.15183027 5.9590302 3.74 8.7h5.16c1.2682549.0035644 2.3972517.8042713 2.82 2h3.28c.4098534-4.90373-.112687-9.8407192-1.54-14.55zm-8.77 5.58c-.15026795-.5291656.14614058-1.0821666.67-1.25l3.83-1.15c.3486659-.1300879.7407289-.0558012 1.0176387.1928185.2769097.2486198.3928558.6304422.3009497.9910584-.0919062.3606162-.3764602.6403678-.7385884.7261231l-3.83 1.15c-.09360647.0311385-.19137063.0479944-.29.05-.44168269.0013127-.83191341-.2872954-.96-.71zm6.23 3.34-3.83 1.16c-.09493396.0237904-.19217049.0372023-.29.04-.43874571-.0008041-.82496021-.2894486-.95-.71-.0777061-.2546104-.05068695-.5296954.07507247-.7643212.12575942-.2346257.33987835-.4094252.59492753-.4856788l3.83-1.15c.3511118-.1370995.7494851-.0651223 1.0304222.1861746.2809371.2512968.3967031.6392146.2994375 1.0033783-.0972657.3641636-.3910364.6426969-.7598597.7204471z"/><path id="Shape" d="m16.749 4.205c.093.019 2.194.518 3.282 3.715-1.1793168-.13470035-2.3699431-.13805422-3.55-.01 1.4765723 4.8849514 2.0290197 10.0024662 1.629 15.09h4.75c-.02-.41-.02-.82-.01-1.23l.07-1.68c.2198163-3.4400384 1.1026853-6.8051277 2.6-9.91.08-.16.16-.31.25-.46-1.120193-.61830381-2.3177111-1.08473391-3.561-1.387 2.147-2.592 4.277-2.326 4.4-2.308.5354699.0805307 1.037759-.27977921 1.1330982-.81281171.0953391-.5330325-.2509125-1.04511393-.7810982-1.15518829-1.6371071-.16222691-3.2730401.31947841-4.561 1.343.1616033-1.50847851.165625-3.0296881.012-4.539-.0884013-.53566465-.5880579-.9029444-1.1256946-.82745804-.5376367.07548637-.9168331.56616062-.8543054 1.10545804.1182277 1.11909297.1282741 2.24697857.03 3.368-.8230305-1.11226045-1.9997487-1.91166715-3.337-2.267-.5369097-.0999029-1.0534473.25339993-1.155.79-.1035141.53842758.2427543 1.06071953.779 1.175z"/><path id="Shape" d="m35.75 23h9.93c.08-.49.15-1 .21-1.51.58-5.02-.02-9.49-1.38-11.82-.07-.12-.14-.23-.21-.34-.4017224-.69719669-1.0888356-1.18329273-1.88-1.33-.5577924-.04766513-1.1143394.10476494-1.57.43-.3138412.20147058-.5996535.44357037-.85.72-1.86 1.95-3.46 6.17-4.05 11.19-.11.91-.17 1.8-.2 2.66z"/><path id="Shape" d="m29.81 23h3.93c.04-.95.11-1.92.22-2.89.64-5.37 2.35-9.98 4.58-12.33-.3372338-.18799686-.7071344-.31016588-1.09-.36-.9572896-.06624383-1.9011317.25437427-2.62.89-2.28 1.8-4.23 6.12-4.84 11.34-.1276285 1.1120043-.1877387 2.2307222-.18 3.35z"/><path id="Shape" d="m24.88 20.95c-.0026875.0026332-.004202.0062374-.004202.01s.0015145.0073668.004202.01c-.03.69-.04 1.37-.01 2.03h2.94c-.0149382-1.1962026.0485311-2.3920984.19-3.58.63-5.38 2.62-10.06 5.24-12.38-.2413197-.09367075-.4931893-.15747771-.75-.19-1.87-.22-3.75 1.45-5.19 4.24-1.4802834 3.0837921-2.3043326 6.4412819-2.42 9.86z"/><path id="Shape" d="m53.96 21h3c.34-6.34-1.59-11.49-4.61-11.85-.2597204-.02834197-.5220733-.02161497-.78.02 1.84 2.6 2.72 6.99 2.39 11.83z"/><path id="Shape" d="m47.86 21.91c.5597927-.581887 1.3325595-.9104935 2.14-.91h1.95c.36-4.73-.55-8.86-2.22-10.96-.550297-.78326343-1.3945699-1.31003202-2.34-1.46-.3822294-.04482607-.7695397-.01424894-1.14.09 1.63 2.82 2.25 7.7 1.63 13.05-.01.06-.01.13-.02.19z"/><path id="Shape" d="m42.65 6.01c.5940563.06812767 1.1649872.2698338 1.67.59.2297368-.98362771.6400163-1.91608092 1.21-2.75.2857554-.43684572.2138591-1.01624513-.17-1.37l-1.35-1.17c-.4047488-.3493273-1.0126767-.31849037-1.38.07-1.2720817 1.31776055-1.9820834 3.07842136-1.98 4.91.4927103-.19826068 1.0188967-.30010321 1.55-.3.15 0 .3.01.45.02z"/></g></g></svg>