<svg width="80" height="35" viewBox="0 0 80 35" fill="none" xmlns="http://www.w3.org/2000/svg">
<path d="M24.1187 12.6475L24.0621 8.16339C24.0591 7.92554 24.151 7.69623 24.3177 7.52591C24.4844 7.3556 24.7122 7.25822 24.9509 7.2552C25.1896 7.25219 25.4198 7.34378 25.5907 7.50984C25.7617 7.67589 25.8594 7.9028 25.8624 8.14065L25.919 12.6247C25.922 12.8626 25.83 13.0919 25.6634 13.2622C25.4967 13.4325 25.2689 13.5299 25.0302 13.5329C24.7914 13.5359 24.5613 13.4443 24.3904 13.2783C24.2194 13.1122 24.1217 12.8853 24.1187 12.6475ZM28.9988 7.95362C28.9786 7.83705 28.9354 7.72563 28.8718 7.62575C28.8082 7.52587 28.7254 7.43952 28.6282 7.37167C28.5309 7.30381 28.4212 7.25579 28.3052 7.23037C28.1893 7.20495 28.0694 7.20263 27.9526 7.22356C27.8357 7.24448 27.7241 7.28822 27.6243 7.35227C27.5245 7.41632 27.4384 7.49941 27.3709 7.59675C27.3035 7.6941 27.256 7.80377 27.2312 7.91947C27.2065 8.03516 27.205 8.15459 27.2267 8.27087L28.1808 13.5628C28.1727 14.3831 27.8427 15.1678 27.2612 15.7487C26.6798 16.3297 25.8932 16.6608 25.0698 16.6712C24.2464 16.6816 23.4517 16.3704 22.8558 15.8043C22.2599 15.2382 21.9101 14.4622 21.8813 13.6423L22.7015 8.328C22.7203 8.21121 22.7157 8.09186 22.6881 7.97683C22.6604 7.8618 22.6102 7.75336 22.5403 7.65775C22.4704 7.56214 22.3822 7.48125 22.2808 7.41974C22.1794 7.35823 22.0668 7.31732 21.9494 7.29935C21.8321 7.28139 21.7123 7.28673 21.597 7.31507C21.4818 7.34341 21.3733 7.39419 21.2778 7.46448C21.1823 7.53477 21.1017 7.62318 21.0406 7.72463C20.9795 7.82608 20.9392 7.93856 20.922 8.0556L20.0897 13.4479C20.0822 13.4967 20.0787 13.546 20.0793 13.5954C20.0955 14.7475 20.5153 15.8576 21.2662 16.7338C22.0171 17.61 23.0518 18.1971 24.1913 18.3936L24.3338 29.687C24.3369 29.9248 24.4346 30.1517 24.6055 30.3178C24.7764 30.4838 25.0066 30.5754 25.2453 30.5724C25.4841 30.5694 25.7118 30.472 25.8785 30.3017C26.0452 30.1314 26.1372 29.9021 26.1342 29.6642L25.9916 18.3709C27.1257 18.1457 28.1452 17.5326 28.8737 16.6377C29.6023 15.7429 29.9939 14.6225 29.981 13.4704C29.9804 13.421 29.9757 13.3718 29.9669 13.3231L28.9988 7.95362Z" fill="#4A4A4A"/>
<path d="M42.5 29.1345V18.75V8.36538C42.5 8.13587 42.3829 7.91575 42.1746 7.75346C41.9662 7.59117 41.6836 7.5 41.3889 7.5C41.0942 7.5 40.8116 7.59117 40.6032 7.75346C40.3949 7.91575 40.2778 8.13587 40.2778 8.36538V14.4231L33.6112 14.4231C33.4553 14.423 33.3011 14.4486 33.1587 14.498C33.0163 14.5475 32.8888 14.6197 32.7846 14.71C32.6804 14.8004 32.6018 14.9068 32.5538 15.0223C32.5059 15.1379 32.4897 15.26 32.5063 15.3807C32.8411 17.5491 33.387 19.6945 34.1394 21.7984C35.8088 26.3877 38.1203 29.1297 41.0092 29.9479C41.177 29.9954 41.3571 30.0108 41.5342 29.9926C41.7113 29.9744 41.8801 29.9232 42.0264 29.8434C42.1727 29.7636 42.2921 29.6575 42.3745 29.5341C42.457 29.4107 42.5 29.2736 42.5 29.1345ZM40.2778 27.5814C38.7406 26.4721 37.3767 24.3486 36.2774 21.3265C35.6725 19.6268 35.2054 17.8992 34.8788 16.1538H40.2778V27.5814Z" fill="#4A4A4A"/>
<path d="M15.0355 8.82H2.46547C1.92547 8.82 1.50547 9.24 1.50547 9.78V29.04C1.50547 29.58 1.92547 30 2.46547 30C2.97547 30 3.42547 29.58 3.42547 29.04V19.89H11.7955C12.3355 19.89 12.7555 19.47 12.7555 18.93C12.7555 18.42 12.3355 18 11.7955 18H3.42547V10.71H15.0355C15.5455 10.71 15.9955 10.29 15.9955 9.78C15.9955 9.24 15.5455 8.82 15.0355 8.82Z" fill="#4A4A4A"/>
<path d="M54.2811 30C49.9011 30 46.6311 26.52 46.6311 21.9C46.6311 19.71 47.3511 17.7 48.6711 16.2C50.0511 14.64 52.0011 13.8 54.1311 13.8C58.4211 13.8 61.5111 17.19 61.5111 21.9C61.5111 22.41 61.0911 22.86 60.5511 22.86H48.5811C49.0011 25.89 51.3111 28.08 54.2811 28.08C56.2911 28.08 58.0611 27.12 59.0811 25.38C59.3811 24.93 59.9511 24.81 60.4011 25.08C60.8511 25.35 61.0011 25.95 60.7311 26.4C59.3211 28.68 56.9811 30 54.2811 30ZM48.5811 20.94H59.5311C59.1711 17.82 57.0711 15.69 54.1311 15.69C51.1911 15.69 48.9711 17.85 48.5811 20.94ZM77.5503 13.8C77.0103 13.8 76.5903 14.22 76.5903 14.73V16.41C75.2103 14.79 73.1703 13.8 70.8303 13.8C66.4803 13.8 63.1803 17.28 63.1803 21.9C63.1803 26.52 66.4803 30 70.8303 30C73.1703 30 75.2103 29.01 76.5903 27.36V29.04C76.5903 29.58 77.0103 30 77.5503 30C78.0903 30 78.5103 29.58 78.5103 29.04V14.73C78.5103 14.22 78.0903 13.8 77.5503 13.8ZM70.8303 28.08C67.5603 28.08 65.1003 25.41 65.1003 21.9C65.1003 18.36 67.5603 15.69 70.8303 15.69C74.1303 15.69 76.5903 18.36 76.5903 21.9C76.5903 25.41 74.1303 28.08 70.8303 28.08Z" fill="#4A4A4A"/>
</svg>
